<svg xmlns="http://www.w3.org/2000/svg" width="128" height="128" fill="none" fill-rule="evenodd"><circle stroke="#3f30ca" stroke-width="2" opacity=".1" cx="64" cy="64" r="63"/><g fill="#4c68ef"><path d="M87 49H46a1 1 0 1 0 0 2h40v33a3 3 0 0 1-3 3H73v-1a2 2 0 0 0-2-2v-1.6c2-2.26 3.848-6.823 3.93-7.025A1 1 0 0 0 75 75v-5a3 3 0 0 0-3-3c-.34.003-.68.066-1 .184V67a3 3 0 0 0-3-3c-.34.003-.68.066-1 .184V63a3 3 0 0 0-3-3c-.34.003-.68.066-1 .184V59a3 3 0 1 0-6 0v4a1 1 0 1 0 2 0v-4a1 1 0 1 1 2 0v8a1 1 0 1 0 2 0v-4a1 1 0 1 1 2 0v8a1 1 0 1 0 2 0v-4a1 1 0 1 1 2 0v7a1 1 0 1 0 2 0v-4a1 1 0 1 1 2 0v4.8c-.367.88-2.076 4.86-3.707 6.5A1 1 0 0 0 69 82v2h-9v-2a1 1 0 0 0-.553-.9A11.7 11.7 0 0 1 55 77.716V68a1 1 0 1 1 2 0v4a1 1 0 1 0 2 0v-4a3 3 0 1 0-6 0v10a1 1 0 0 0 .105.447c.113.225 1.167 2.17 4.895 4.16V84h-1a2 2 0 0 0-2 2v1H45a3 3 0 0 1-3-3V46a3 3 0 0 1 3-3h38a2.85 2.85 0 0 1 2.168.832c.572.572.874 1.36.832 2.168a1 1 0 1 0 2 0 4.82 4.82 0 0 0-5-5H45a5.006 5.006 0 0 0-5 5v38a5.006 5.006 0 0 0 5 5h38a5.006 5.006 0 0 0 5-5V50a1 1 0 0 0-1-1zM71 87H57v-1h14v1zM46 45a1 1 0 1 0 0 2h2a1 1 0 1 0 0-2h-2zm6 0a1 1 0 1 0 0 2h2a1 1 0 1 0 0-2h-2zm29 0a1 1 0 1 0 0 2h2a1 1 0 1 0 0-2h-2zm-31.293 9.293a1 1 0 0 0-1.414 0l-3 3a.99.99 0 0 0-.217.326 1 1 0 0 0 0 .764.99.99 0 0 0 .217.326l3 3a1 1 0 0 0 1.414-1.414L48.414 59H53a1 1 0 1 0 0-2h-4.586l1.293-1.293a1 1 0 0 0 0-1.414zM68 58a1 1 0 0 0 1 1h10.586l-1.293 1.293a1 1 0 1 0 1.414 1.414l3-3a.99.99 0 0 0 .217-.326 1 1 0 0 0 0-.764.99.99 0 0 0-.217-.326l-3-3a1 1 0 0 0-1.414 1.414L79.586 57H69a1 1 0 0 0-1 1z" fill-rule="nonzero"/><circle cx="107" cy="107" r="21"/></g><path d="M110.582 107.8c.612.648.918 1.458.918 2.43 0 .732-.186 1.398-.558 1.998s-.933 1.077-1.683 1.43-1.665.53-2.745.53a8.75 8.75 0 0 1-2.601-.387c-.834-.258-1.545-.615-2.133-1.07l1.008-1.818c.456.384 1.01.687 1.665.91s1.33.333 2.025.333c.828 0 1.48-.17 1.953-.513a1.63 1.63 0 0 0 .711-1.395c0-.588-.225-1.047-.675-1.377s-1.137-.495-2.06-.495h-1.152v-1.602l2.862-3.402h-5.724V101.4h8.586v1.566l-3.06 3.636c1.164.144 2.052.54 2.664 1.188z" fill="#fff"/></svg>