<svg xmlns="http://www.w3.org/2000/svg" width="128" height="128" fill="none" fill-rule="evenodd"><circle stroke="#4c68ef" stroke-width="2" opacity=".1" cx="64" cy="64" r="63"/><g fill="#4c68ef"><path d="M89 44H69v-2a2 2 0 0 0-2-2h-2a2 2 0 0 0-2 2v2H43a1 1 0 0 0-1 1v4a1 1 0 0 0 1 1h1v9a1 1 0 1 0 2 0v-9h1a1 1 0 1 0 0-2h-3v-2h20a1 1 0 0 0 1-1v-3h2v3a1 1 0 0 0 1 1h20v2H59a1 1 0 1 0 0 2h27v24a2 2 0 0 1-2 2H68a2.915 2.915 0 0 0-2.147.853A2.92 2.92 0 0 0 65 79v1h-1a1.96 1.96 0 0 0-2 2v5a1 1 0 0 0 1 1h3a1 1 0 0 0 1-1v-3a1 1 0 1 0-2 0v2h-1v-4h2a1 1 0 0 0 1-1v-2a.91.91 0 0 1 .264-.736A.888.888 0 0 1 68 78h16a4 4 0 0 0 4-4V50h1a1 1 0 0 0 1-1v-4a1 1 0 0 0-1-1zM68 66v-4a1 1 0 0 0-1-1H56a1 1 0 0 0-.707.293L53 63.586l-2.293-2.293A1 1 0 0 0 50 61h-2a5.006 5.006 0 0 0-5 5v8a1 1 0 1 0 2 0v-8a3 3 0 0 1 3-3h1.586l2.707 2.707a1 1 0 0 0 1.414 0L56.414 63H66v2h-5a1 1 0 1 0 0 2h6a1 1 0 0 0 1-1zM58 54a5 5 0 1 0-5 5 5.006 5.006 0 0 0 5-5zm-8 0a3 3 0 1 1 6 0 3 3 0 1 1-6 0zm-2 13a1 1 0 0 0-1 1v19a1 1 0 1 0 2 0V68a1 1 0 0 0-1-1zm10 0a1 1 0 0 0-1 1v19a1 1 0 1 0 2 0V68a1 1 0 0 0-1-1zm-5 10a1 1 0 0 0-1 1v9a1 1 0 1 0 2 0v-9a1 1 0 0 0-1-1zm22.74-6.72a8.07 8.07 0 0 1-5.629 1.726A1 1 0 0 0 70 72h-7a1 1 0 1 0 0 2h6.952l.72.028a9.71 9.71 0 0 0 6.39-2.247C79 70.036 80 67.417 80 64v-7.586l1.293 1.293a1 1 0 0 0 1.414-1.414l-3-3a.99.99 0 0 0-.326-.217 1 1 0 0 0-.764 0 .99.99 0 0 0-.326.217l-3 3a1 1 0 0 0 1.414 1.414L78 56.414V64c0 2.816-.76 4.93-2.26 6.28zm-9.447-11.573a1 1 0 0 0 1.414 0L69 57.414l1.293 1.293a1 1 0 0 0 1.414-1.414L70.414 56l1.293-1.293a1 1 0 0 0-1.414-1.414L69 54.586l-1.293-1.293a1 1 0 0 0-1.414 1.414L67.586 56l-1.293 1.293a1 1 0 0 0 0 1.414zM53 68a1 1 0 0 0-1 1v1a1 1 0 1 0 2 0v-1a1 1 0 0 0-1-1zm0 4a1 1 0 0 0-1 1v1a1 1 0 1 0 2 0v-1a1 1 0 0 0-1-1z" fill-rule="nonzero"/><circle cx="107" cy="106" r="21"/></g><path d="M111.806 110.624V113h-9.522v-1.9l4.86-4.6c.516-.492.864-.915 1.044-1.27s.27-.705.27-1.053c0-.504-.17-.89-.513-1.16s-.843-.405-1.503-.405c-.552 0-1.05.105-1.494.315a2.86 2.86 0 0 0-1.116.945l-2.124-1.368c.492-.732 1.17-1.305 2.034-1.72s1.854-.62 2.97-.62c.936 0 1.755.153 2.457.46s1.248.738 1.638 1.296.585 1.215.585 1.97c0 .684-.144 1.326-.432 1.926s-.846 1.284-1.674 2.052l-2.898 2.736h5.418z" fill="#fff"/></svg>