<svg xmlns="http://www.w3.org/2000/svg" width="128" height="128" fill="none" fill-rule="evenodd"><circle stroke="#4c68ef" stroke-width="2" opacity=".1" cx="64" cy="64" r="63"/><circle fill="#4c68ef" cx="107" cy="107" r="21"/><path fill="#fff" d="M108.72 101.4V114h-2.34v-10.638h-2.664V101.4z"/><path d="M83 40h-7a1 1 0 1 0 0 2h7a3 3 0 0 1 3 3v18a1 1 0 1 0 2 0V45a5.006 5.006 0 0 0-5-5zm4 27H46a1 1 0 1 0 0 2h40v4a3 3 0 0 1-3 3H45a3 3 0 0 1-3-3V45a3 3 0 0 1 3-3h7a1 1 0 1 0 0-2h-7a5.006 5.006 0 0 0-5 5v28a5.006 5.006 0 0 0 5 5h11v4.465l-2.555 1.7A1 1 0 0 0 53 85v1a2 2 0 0 0 2 2h18a2 2 0 0 0 2-2v-1a1 1 0 0 0-.445-.832L72 82.465V81a1 1 0 1 0-2 0v2a1 1 0 0 0 .445.832L73 85.535V86H55v-.465l2.555-1.7A1 1 0 0 0 58 83v-5h25a5.006 5.006 0 0 0 5-5v-5a1 1 0 0 0-1-1zM53.394 47.636l1.744 1.745A9.9 9.9 0 0 0 54.466 51H52a2 2 0 0 0-2 2v2a2 2 0 0 0 2 2h3a1 1 0 1 0 0-2h-3v-2h3.23a1 1 0 0 0 .976-.778 7.94 7.94 0 0 1 1.027-2.474 1 1 0 0 0-.139-1.24l-2.286-2.286 1.414-1.414 2.286 2.286a1 1 0 0 0 1.241.138 7.96 7.96 0 0 1 2.473-1.027A1 1 0 0 0 63 45.23V42h2v3.23a1 1 0 0 0 .778.975 7.96 7.96 0 0 1 2.473 1.027 1 1 0 0 0 1.241-.138l2.286-2.286 1.414 1.414-2.286 2.286a1 1 0 0 0-.139 1.24c.48.76.828 1.597 1.027 2.474a1 1 0 0 0 .976.778H76v2h-3a1 1 0 1 0 0 2h3a2 2 0 0 0 2-2v-2a2 2 0 0 0-2-2h-2.466a9.9 9.9 0 0 0-.672-1.619l1.744-1.745a2 2 0 0 0 0-2.828l-1.414-1.414a2.047 2.047 0 0 0-2.828 0L68.62 45.14a9.86 9.86 0 0 0-1.62-.674V42a2 2 0 0 0-2-2h-2a2 2 0 0 0-2 2v2.466a9.86 9.86 0 0 0-1.619.673l-1.745-1.745a2.047 2.047 0 0 0-2.828 0l-1.414 1.414a2 2 0 0 0 0 2.828zM66 54a1 1 0 1 0 2 0 4 4 0 1 0-8 0 1 1 0 1 0 2 0 2 2 0 1 1 4 0zm-6.816 7H50a1 1 0 1 0 0 2h9.184a3 3 0 1 0 0-2zM63 62a1 1 0 1 1-2 0 1 1 0 1 1 2 0zm5 1h10a1 1 0 1 0 0-2H68a1 1 0 1 0 0 2z" fill="#4c68ef" fill-rule="nonzero"/></svg>